<?xml version="1.0" encoding="UTF-8" standalone="no"?>
<!-- Created with Inkscape (http://www.inkscape.org/) -->

<svg
   xmlns:dc="http://purl.org/dc/elements/1.1/"
   xmlns:cc="http://creativecommons.org/ns#"
   xmlns:rdf="http://www.w3.org/1999/02/22-rdf-syntax-ns#"
   xmlns:svg="http://www.w3.org/2000/svg"
   xmlns="http://www.w3.org/2000/svg"
   xmlns:sodipodi="http://sodipodi.sourceforge.net/DTD/sodipodi-0.dtd"
   xmlns:inkscape="http://www.inkscape.org/namespaces/inkscape"
   width="210mm"
   height="297mm"
   viewBox="0 0 210 297"
   version="1.1"
   id="svg1941"
   inkscape:version="0.92.2 (5c3e80d, 2017-08-06)"
   sodipodi:docname="stones-1.svg">
  <defs
     id="defs1935" />
  <sodipodi:namedview
     id="base"
     pagecolor="#ffffff"
     bordercolor="#666666"
     borderopacity="1.0"
     inkscape:pageopacity="0.0"
     inkscape:pageshadow="2"
     inkscape:zoom="1.4142136"
     inkscape:cx="209.09947"
     inkscape:cy="642.08535"
     inkscape:document-units="mm"
     inkscape:current-layer="layer1"
     showgrid="false"
     inkscape:window-width="1600"
     inkscape:window-height="847"
     inkscape:window-x="-8"
     inkscape:window-y="-8"
     inkscape:window-maximized="1" />
  <metadata
     id="metadata1938">
    <rdf:RDF>
      <cc:Work
         rdf:about="">
        <dc:format>image/svg+xml</dc:format>
        <dc:type
           rdf:resource="http://purl.org/dc/dcmitype/StillImage" />
        <dc:title></dc:title>
      </cc:Work>
    </rdf:RDF>
  </metadata>
  <g
     inkscape:label="Calque 1"
     inkscape:groupmode="layer"
     id="layer1">
    <path
       style="fill:#dedede;stroke:#000000;stroke-width:1.269;stroke-linecap:round;stroke-linejoin:round;stroke-miterlimit:4;stroke-dasharray:none;stroke-opacity:1;fill-opacity:1"
       d="m 49.946476,117.24963 c 10.26294,6.83201 43.62498,6.33619 49.612517,-8.71017 C 105.54653,93.493114 85.27146,72.492249 71.631915,70.994889 57.992369,69.497528 45.027869,71.319457 41.946557,80.682012 38.865244,90.04456 39.683535,110.41763 49.946476,117.24963 Z"
       id="path2486"
       inkscape:connector-curvature="0"
       sodipodi:nodetypes="zzzzz"
       inkscape:export-xdpi="5.2725563"
       inkscape:export-ydpi="5.2725563" />
    <path
       style="opacity:1;fill:#c1c1c1;fill-opacity:1;fill-rule:evenodd;stroke:#c1c1c1;stroke-width:0.0434286;stroke-linecap:round;stroke-linejoin:round;stroke-miterlimit:4;stroke-dasharray:none;stroke-dashoffset:0;stroke-opacity:1;paint-order:normal"
       d="m 257.50034,456.56179 c -24.37595,-0.58626 -46.85453,-4.9951 -61.14655,-11.99301 l -2.58144,-1.26397 4.68458,-0.12094 c 42.39605,-1.09454 76.79718,-7.27967 103.41436,-18.59332 4.04079,-1.71753 11.92258,-5.67207 15.46797,-7.76075 25.92462,-15.27284 40.62008,-36.98737 42.70424,-63.10127 0.40896,-5.12418 0.0455,-13.23586 -0.78986,-17.62838 -0.13667,-0.71868 -0.22677,-1.32966 -0.20021,-1.35773 0.064,-0.0676 1.8568,2.7096 3.45642,5.35434 12.91577,21.35436 17.82578,42.28469 14.14117,60.28086 -2.90556,14.1911 -11.29933,25.75289 -25.38476,34.96558 -15.14901,9.90832 -36.68206,16.79659 -61.68095,19.73128 -10.35234,1.21529 -21.63977,1.73852 -32.08497,1.48731 z"
       id="path2523"
       inkscape:connector-curvature="0"
       transform="scale(0.26458333)"
       inkscape:export-xdpi="5.2725563"
       inkscape:export-ydpi="5.2725563" />
    <path
       style="fill:#dedede;fill-opacity:1;stroke:#000000;stroke-width:1;stroke-linecap:round;stroke-linejoin:round;stroke-miterlimit:4;stroke-dasharray:none;stroke-opacity:1"
       d="m 40.138851,100.97364 c -4.617992,1.75033 -3.646204,9.44607 -3.551537,14.38373 0.0738,3.84918 0.352659,8.50339 3.196384,11.09855 3.605779,3.29061 9.519505,2.34126 14.383727,2.75245 2.890716,0.24436 6.337975,1.50492 8.701268,-0.17758 2.852961,-2.03111 4.69671,-6.51653 3.640326,-9.85552 C 63.28729,108.99212 50.126184,97.188239 40.138851,100.97364 Z"
       id="path2494"
       inkscape:connector-curvature="0"
       sodipodi:nodetypes="sssssss"
       inkscape:export-xdpi="5.2725563"
       inkscape:export-ydpi="5.2725563" />
    <path
       style="opacity:1;fill:#c1c1c1;fill-opacity:1;fill-rule:evenodd;stroke:#c1c1c1;stroke-width:0.05;stroke-linecap:round;stroke-linejoin:round;stroke-miterlimit:4;stroke-dasharray:none;stroke-dashoffset:0;stroke-opacity:1;paint-order:normal"
       d="m 58.867608,129.34473 c -0.416197,-0.0356 -1.15961,-0.13504 -1.92384,-0.2573 -0.401765,-0.0643 -0.925169,-0.14787 -1.163125,-0.18576 -1.36762,-0.21778 -2.368373,-0.28265 -4.636119,-0.32645 -4.424484,-0.11879 -9.397536,0.2228 -12.29747,-4.09402 12.608156,4.33709 24.033381,-4.14915 23.236409,-12.59233 1.945126,2.57559 2.948983,4.88962 3.222234,5.53081 0.338685,0.79474 0.673968,1.72101 0.799949,2.20998 0.192117,0.74567 0.240474,1.61537 0.138488,2.49062 -0.145589,1.24947 -0.590928,2.58247 -1.239065,3.70882 -0.470432,0.81753 -0.94565,1.4358 -1.592275,2.07158 -0.874112,0.85945 -1.597068,1.24293 -2.662608,1.41235 -0.298339,0.0474 -1.468332,0.0671 -1.88258,0.0317 z"
       id="path2558"
       inkscape:connector-curvature="0"
       sodipodi:nodetypes="cccccccccssccc"
       inkscape:export-xdpi="5.2725563"
       inkscape:export-ydpi="5.2725563" />
    <g
       id="g2512"
       transform="translate(3.928862,3.7417728)"
       inkscape:export-xdpi="5.2725563"
       inkscape:export-ydpi="5.2725563">
      <path
         sodipodi:nodetypes="zzzz"
         inkscape:connector-curvature="0"
         id="path2488"
         d="m 98.375372,103.67477 c 7.928008,2.17965 13.376418,13.03804 8.159588,19.97284 -5.21684,6.9348 -27.731505,6.10249 -30.318241,-3.25492 -2.586724,-9.35743 14.230643,-18.89757 22.158653,-16.71792 z"
         style="fill:#dedede;fill-opacity:1;stroke:#000000;stroke-width:1;stroke-linecap:round;stroke-linejoin:round;stroke-miterlimit:4;stroke-dasharray:none;stroke-opacity:1" />
      <path
         transform="scale(0.26458333)"
         inkscape:connector-curvature="0"
         id="path2508"
         d="m 347.80122,482.65508 c -16.85225,-0.5764 -31.67629,-4.19142 -42.375,-10.33366 -1.2797,-0.73469 -4.24953,-2.69818 -4.875,-3.22308 l -0.3125,-0.26226 0.5,0.0688 c 1.10093,0.15147 5.0189,0.58164 7.4375,0.81658 17.54069,1.70393 33.14923,1.36377 45.875,-0.99975 22.95662,-4.26368 37.82452,-15.1276 43.54031,-31.81474 1.21703,-3.55311 1.93124,-6.9447 2.33928,-11.10861 0.16915,-1.72611 0.16927,-6.83765 2.5e-4,-8.55801 -0.0704,-0.71663 -0.10493,-1.32608 -0.0767,-1.35434 0.0905,-0.0905 1.92794,3.09279 2.94081,5.0948 2.39049,4.72498 4.02554,9.53724 4.92663,14.5 0.54902,3.02374 0.64234,4.2281 0.63443,8.1875 -0.006,3.23844 -0.0457,3.99726 -0.28789,5.5625 -0.68179,4.40733 -2.08805,8.73497 -3.98061,12.25 -0.8651,1.60675 -2.76245,4.41759 -3.88131,5.75 -2.27539,2.70968 -5.50052,5.15341 -9.7802,7.4106 -8.06242,4.25229 -19.8082,7.09894 -32.3125,7.8311 -2.35219,0.13773 -8.46142,0.24589 -10.3125,0.18258 z"
         style="opacity:1;fill:#c1c1c1;fill-opacity:1;fill-rule:evenodd;stroke:#c1c1c1;stroke-width:0.03070866;stroke-linecap:round;stroke-linejoin:round;stroke-miterlimit:4;stroke-dasharray:none;stroke-dashoffset:0;stroke-opacity:1;paint-order:normal" />
    </g>
    <g
       id="g2568"
       transform="rotate(-2.1718153,64.635117,127.26682)"
       inkscape:export-xdpi="5.2725563"
       inkscape:export-ydpi="5.2725563">
      <path
         sodipodi:nodetypes="zzzz"
         inkscape:connector-curvature="0"
         id="path2492"
         d="m 56.498743,130.63095 c 3.756322,3.97565 15.140425,1.69113 17.238885,-2.93996 2.09846,-4.63109 -3.07852,-6.52132 -10.02261,-5.61266 -6.944087,0.90866 -10.972596,4.57698 -7.216275,8.55262 z"
         style="fill:#dedede;fill-opacity:1;stroke:#000000;stroke-width:0.80000001;stroke-linecap:round;stroke-linejoin:round;stroke-miterlimit:4;stroke-dasharray:none;stroke-opacity:1" />
      <path
         transform="scale(0.26458333)"
         inkscape:connector-curvature="0"
         id="path2533"
         d="m 234.49176,499.86196 c -7.02789,-0.34603 -12.82667,-1.96985 -16.91532,-4.73677 -0.46419,-0.31414 -0.59594,-0.43211 -0.48257,-0.43211 0.0202,0 0.38314,0.0701 0.80655,0.15571 44.06246,0.2658 60.84568,-17.39144 58.77883,-25.74295 1.07021,1.25685 1.81744,2.93086 2.09925,4.36183 0.21145,1.11372 0.19904,2.64197 -0.0324,3.98968 -0.31023,1.80663 -1.14561,4.11795 -2.06871,5.72372 -1.38435,2.40812 -3.3677,4.54485 -6.18948,6.66812 -4.60527,3.46526 -10.94896,6.30462 -18.07542,8.09034 -3.92474,0.98345 -7.82173,1.59082 -11.93243,1.85974 -1.23535,0.0808 -4.85125,0.11867 -5.98831,0.0627 z"
         style="opacity:1;fill:#c1c1c1;fill-opacity:1;fill-rule:evenodd;stroke:#c1c1c1;stroke-width:0.01085715;stroke-linecap:round;stroke-linejoin:round;stroke-miterlimit:4;stroke-dasharray:none;stroke-dashoffset:0;stroke-opacity:1;paint-order:normal"
         sodipodi:nodetypes="ccscccccccccc" />
    </g>
  </g>
</svg>
