<?xml version="1.0" encoding="UTF-8" standalone="no"?>
<!-- Created with Inkscape (http://www.inkscape.org/) -->

<svg
   xmlns:dc="http://purl.org/dc/elements/1.1/"
   xmlns:cc="http://creativecommons.org/ns#"
   xmlns:rdf="http://www.w3.org/1999/02/22-rdf-syntax-ns#"
   xmlns:svg="http://www.w3.org/2000/svg"
   xmlns="http://www.w3.org/2000/svg"
   xmlns:sodipodi="http://sodipodi.sourceforge.net/DTD/sodipodi-0.dtd"
   xmlns:inkscape="http://www.inkscape.org/namespaces/inkscape"
   width="210mm"
   height="297mm"
   viewBox="0 0 210 297"
   version="1.1"
   id="svg8"
   inkscape:version="0.92.2 (5c3e80d, 2017-08-06)"
   sodipodi:docname="seaweed.svg">
  <defs
     id="defs2" />
  <sodipodi:namedview
     id="base"
     pagecolor="#ffffff"
     bordercolor="#666666"
     borderopacity="1.0"
     inkscape:pageopacity="0.0"
     inkscape:pageshadow="2"
     inkscape:zoom="2"
     inkscape:cx="285.92529"
     inkscape:cy="729.87809"
     inkscape:document-units="mm"
     inkscape:current-layer="layer1"
     showgrid="false"
     showguides="false"
     inkscape:window-width="1600"
     inkscape:window-height="847"
     inkscape:window-x="-8"
     inkscape:window-y="-8"
     inkscape:window-maximized="1" />
  <metadata
     id="metadata5">
    <rdf:RDF>
      <cc:Work
         rdf:about="">
        <dc:format>image/svg+xml</dc:format>
        <dc:type
           rdf:resource="http://purl.org/dc/dcmitype/StillImage" />
        <dc:title></dc:title>
      </cc:Work>
    </rdf:RDF>
  </metadata>
  <g
     inkscape:label="Calque 1"
     inkscape:groupmode="layer"
     id="layer1">
    <path
       style="fill:#64aa36;fill-opacity:1;stroke:#2f491f;stroke-width:0.99988055;stroke-linecap:round;stroke-linejoin:round;stroke-miterlimit:4;stroke-dasharray:none;stroke-opacity:1"
       d="m 91.509641,130.86669 c 0.550166,-4.39651 -3.042199,-9.31251 -3.042199,-10.2361 0,-3.06175 2.905782,-3.57804 3.030494,-5.53645 0.124712,-1.95841 -2.726146,-4.42778 -2.726146,-6.24646 0,-1.81866 2.286129,-2.64427 2.234483,-4.47461 -0.05165,-1.83034 -1.263668,-3.5321 -1.263668,-5.908067 0,-2.375973 1.575057,-3.084899 1.575057,-4.416094 0,-1.331194 -1.559036,-3.790287 -1.559036,-5.063259 0,-1.272974 1.32787,-2.178148 1.413041,-4.585745 0.08517,-2.407596 -3.511262,-8.323036 -7.164721,-8.594745 -3.653458,-0.29512 -0.402812,5.866233 -0.317642,8.273829 0.04063,1.148623 -2.48501,2.887085 -2.48501,4.806091 0,1.919006 1.688328,3.790093 1.688328,4.455753 0,1.272973 -2.038221,2.909492 -2.038221,4.240686 0,1.331195 2.28712,3.312121 2.28712,5.688101 0,2.37596 -2.841344,3.33539 -2.892994,5.16573 -0.05165,1.83034 3.084929,3.31725 3.084929,5.13591 0,1.81868 -2.66187,2.87097 -2.537158,4.82938 0.124712,1.95841 2.369036,2.75811 2.369036,5.81986 0,1.22054 -1.440043,4.36261 -1.987337,6.80924 -0.08763,0.39175 4.82665,5.0189 4.82665,5.0189 1.404095,-0.76583 5.303702,-4.12769 5.504994,-5.18195 z"
       id="path849-3"
       inkscape:connector-curvature="0"
       sodipodi:nodetypes="cszzzzzzzcszszzzzzsscc"
       inkscape:export-xdpi="5.8292165"
       inkscape:export-ydpi="5.8292165" />
    <path
       style="fill:none;stroke:#2f491f;stroke-width:0.66492057;stroke-linecap:round;stroke-linejoin:round;stroke-miterlimit:4;stroke-dasharray:none;stroke-opacity:1"
       d="m 86.235266,131.94328 0.412181,-4.56213 c 0.269243,-1.26703 -1.766133,-5.97984 -1.697294,-8.22932 0.06884,-2.24948 2.001653,-1.89021 2.135698,-3.97628 0.134045,-2.08607 -1.769167,-3.69867 -1.852217,-5.28192 -0.08305,-1.58325 1.849376,-4.54948 1.847157,-6.0461 -0.0022,-1.49662 -1.570001,-4.173226 -1.563676,-6.046237 0.0063,-1.87301 0.361849,-2.89335 0.781841,-4.483228 0.419992,-1.589877 -0.716692,-2.977576 -0.716692,-4.576339 0,-0.886849 1.538719,-2.772015 1.605537,-4.429173 0.06682,-1.657159 -1.202963,-4.619675 -1.202963,-4.619675"
       id="path866"
       inkscape:connector-curvature="0"
       sodipodi:nodetypes="czzzzzzzszc"
       inkscape:export-xdpi="5.8292165"
       inkscape:export-ydpi="5.8292165" />
    <path
       style="fill:none;stroke:#2f491f;stroke-width:0.99988055;stroke-linecap:round;stroke-linejoin:round;stroke-miterlimit:4;stroke-dasharray:none;stroke-opacity:1"
       d="m 86.004645,136.04864 c -1.286235,3.67075 0.799486,5.46497 -0.545214,8.45767"
       id="path891"
       inkscape:connector-curvature="0"
       sodipodi:nodetypes="cc"
       inkscape:export-xdpi="5.8292165"
       inkscape:export-ydpi="5.8292165" />
  </g>
</svg>
