<?xml version="1.0" encoding="UTF-8" standalone="no"?>
<!-- Created with Inkscape (http://www.inkscape.org/) -->

<svg
   xmlns:dc="http://purl.org/dc/elements/1.1/"
   xmlns:cc="http://creativecommons.org/ns#"
   xmlns:rdf="http://www.w3.org/1999/02/22-rdf-syntax-ns#"
   xmlns:svg="http://www.w3.org/2000/svg"
   xmlns="http://www.w3.org/2000/svg"
   xmlns:sodipodi="http://sodipodi.sourceforge.net/DTD/sodipodi-0.dtd"
   xmlns:inkscape="http://www.inkscape.org/namespaces/inkscape"
   width="210mm"
   height="297mm"
   viewBox="0 0 210 297"
   version="1.1"
   id="svg1105"
   inkscape:version="0.92.2 (5c3e80d, 2017-08-06)"
   sodipodi:docname="starfish.svg">
  <defs
     id="defs1099" />
  <sodipodi:namedview
     id="base"
     pagecolor="#ffffff"
     bordercolor="#666666"
     borderopacity="1.0"
     inkscape:pageopacity="0.0"
     inkscape:pageshadow="2"
     inkscape:zoom="1.5936572"
     inkscape:cx="291.8604"
     inkscape:cy="518.15807"
     inkscape:document-units="mm"
     inkscape:current-layer="layer1"
     showgrid="false"
     inkscape:window-width="1600"
     inkscape:window-height="847"
     inkscape:window-x="-8"
     inkscape:window-y="-8"
     inkscape:window-maximized="1" />
  <metadata
     id="metadata1102">
    <rdf:RDF>
      <cc:Work
         rdf:about="">
        <dc:format>image/svg+xml</dc:format>
        <dc:type
           rdf:resource="http://purl.org/dc/dcmitype/StillImage" />
        <dc:title></dc:title>
      </cc:Work>
    </rdf:RDF>
  </metadata>
  <g
     inkscape:label="Calque 1"
     inkscape:groupmode="layer"
     id="layer1">
    <g
       id="g1712"
       inkscape:export-xdpi="27.093346"
       inkscape:export-ydpi="27.093346">
      <path
         sodipodi:nodetypes="zczczczczcz"
         inkscape:connector-curvature="0"
         id="path1336"
         d="m 115.69784,132.19513 c 1.30964,0.65226 -1.53923,10.31329 -1.53923,10.31329 0,0 7.41203,5.0114 7.37452,6.40849 -0.0376,1.3971 -9.99717,2.59724 -9.99717,2.59724 0,0 -3.9083,9.69074 -5.03171,9.5316 -1.1234,-0.15915 -3.23254,-9.24586 -3.23254,-9.24586 0,0 -10.648975,-0.81086 -10.643363,-2.63122 0.0056,-1.82037 9.023073,-4.89805 9.023073,-4.89805 0,0 -3.233541,-9.77365 -2.346351,-10.6881 0.887191,-0.91446 8.116111,5.50981 8.116111,5.50981 0,0 6.96701,-7.54946 8.27666,-6.8972 z"
         style="fill:#ff8a23;fill-opacity:1;stroke:#000000;stroke-width:1.09492302;stroke-linecap:round;stroke-linejoin:round;stroke-miterlimit:4;stroke-dasharray:none;stroke-opacity:1" />
      <path
         sodipodi:nodetypes="ccc"
         inkscape:connector-curvature="0"
         id="path1346"
         d="m 100.59111,135.99469 0.43322,0.0319 5.89224,4.72191"
         style="fill:none;fill-opacity:1;stroke:#fdaf4f;stroke-width:0.84176165;stroke-linecap:round;stroke-linejoin:round;stroke-miterlimit:4;stroke-dasharray:none;stroke-opacity:0.88990826" />
      <path
         sodipodi:nodetypes="ccc"
         inkscape:connector-curvature="0"
         id="path1346-4"
         d="m 95.356398,148.77857 0.283674,-0.39987 6.630958,-2.79971"
         style="fill:none;fill-opacity:1;stroke:#fdaf4f;stroke-width:0.84176165;stroke-linecap:round;stroke-linejoin:round;stroke-miterlimit:4;stroke-dasharray:none;stroke-opacity:0.88990826" />
      <path
         sodipodi:nodetypes="ccc"
         inkscape:connector-curvature="0"
         id="path1346-4-5"
         d="m 114.10013,134.21753 -0.24128,0.0623 -0.71524,1.04756"
         style="fill:none;fill-opacity:1;stroke:#fdaf4f;stroke-width:0.71518087;stroke-linecap:round;stroke-linejoin:round;stroke-miterlimit:4;stroke-dasharray:none;stroke-opacity:0.88990826" />
      <path
         inkscape:connector-curvature="0"
         id="path1380"
         d="m 106.51588,160.34751 c -0.39769,-0.53827 -0.98507,-2.11799 -1.65799,-4.45908 -0.0998,-0.34701 -0.23681,-0.83839 -0.26394,-0.94622 l -0.0221,-0.0875 0.0556,0.11748 c 0.63707,1.34483 1.21852,2.35434 1.61476,2.80353 0.15754,0.17857 0.30353,0.27949 0.42181,0.29155 0.0628,0.006 0.0707,0.004 0.1517,-0.0351 0.0953,-0.0467 0.17065,-0.10408 0.29441,-0.22389 0.24535,-0.2376 0.532,-0.58708 0.94688,-1.15443 0.52548,-0.71861 1.11083,-1.59457 1.85369,-2.77396 0.0916,-0.14534 0.1689,-0.26294 0.17189,-0.26136 0.006,0.003 -0.21004,0.5015 -0.49294,1.13546 -1.33308,2.98751 -2.37342,4.93982 -2.96521,5.56455 -0.0379,0.04 -0.0702,0.0734 -0.0716,0.0741 -0.002,7.2e-4 -0.0182,-0.0196 -0.0371,-0.0451 z"
         style="opacity:1;fill:#ec6e00;fill-opacity:1;stroke:#fc6101;stroke-width:0.00366263;stroke-linecap:round;stroke-linejoin:round;stroke-miterlimit:4;stroke-dasharray:none;stroke-dashoffset:0;stroke-opacity:1;paint-order:normal" />
      <path
         inkscape:connector-curvature="0"
         id="path1384"
         d="m 120.452,149.08878 c -0.98008,0.41767 -2.89876,0.87773 -5.39981,1.29477 -0.20131,0.0335 -0.38504,0.0644 -0.40829,0.0683 -0.0233,0.004 -0.0416,0.005 -0.0406,0.003 9e-4,-0.002 0.10629,-0.0396 0.2343,-0.0825 0.90176,-0.30219 1.82711,-0.64258 2.61352,-0.96137 0.33335,-0.13514 1.23081,-0.5633 1.38911,-0.66272 0.31499,-0.19785 0.4575,-0.3368 0.48043,-0.46848 0.0165,-0.0946 0.0101,-0.13597 -0.0481,-0.31329 -0.0452,-0.13781 -0.0607,-0.17419 -0.11401,-0.26825 -0.15817,-0.2794 -0.41211,-0.62426 -0.71013,-0.96442 -0.0535,-0.0611 -0.0974,-0.11481 -0.0975,-0.11934 -1.7e-4,-0.0109 0.16088,0.10589 0.57016,0.4133 0.84001,0.63102 1.4474,1.14884 1.80421,1.53821 0.10955,0.11953 0.20859,0.23885 0.21523,0.25926 0.008,0.0231 -0.24923,0.16177 -0.48834,0.26367 z"
         style="opacity:1;fill:#ec6e00;fill-opacity:1;stroke:#fc6101;stroke-width:0.00238072;stroke-linecap:round;stroke-linejoin:round;stroke-miterlimit:4;stroke-dasharray:none;stroke-dashoffset:0;stroke-opacity:1;paint-order:normal" />
      <path
         inkscape:connector-curvature="0"
         id="path1390"
         d="m 103.50542,151.25426 c -0.0438,-0.0378 -0.25119,-0.0711 -0.69569,-0.11169 -0.89912,-0.0821 -2.88859,-0.3108 -3.694095,-0.42468 -1.313987,-0.18573 -2.905634,-0.47087 -2.864458,-0.51315 0.01074,-0.0111 0.146664,-0.0133 0.302052,-0.005 1.066913,0.0564 2.866666,0.0518 3.695141,-0.01 1.0705,-0.0792 2.40666,-0.41221 4.33902,-1.08143 0.3647,-0.1263 0.66159,-0.22631 0.65975,-0.22223 -0.002,0.004 -0.33824,0.48778 -0.74756,1.07492 -0.40932,0.58714 -0.78644,1.1303 -0.83805,1.20705 l -0.0938,0.13955 z"
         style="opacity:1;fill:#ec6e00;fill-opacity:1;stroke:#fc6101;stroke-width:0.00673368;stroke-linecap:round;stroke-linejoin:round;stroke-miterlimit:4;stroke-dasharray:none;stroke-dashoffset:0;stroke-opacity:1;paint-order:normal" />
      <path
         inkscape:connector-curvature="0"
         id="path1394"
         d="m 102.81817,144.41714 c -0.55875,-0.099 -0.6378,-0.12089 -0.65422,-0.1811 -0.0103,-0.0377 -0.17295,-0.56709 -0.36152,-1.17648 -0.55148,-1.78221 -1.33465,-4.46736 -1.37329,-4.70847 -0.008,-0.0478 -0.001,-0.0331 0.4458,1.02577 0.67681,1.6029 0.98774,2.24696 1.62392,3.36373 0.43024,0.75528 0.97527,1.72909 0.98571,1.76124 0.0104,0.0319 -0.0566,0.0233 -0.6664,-0.0847 z"
         style="opacity:1;fill:#ec6e00;fill-opacity:1;stroke:none;stroke-width:0.00673368;stroke-linecap:round;stroke-linejoin:round;stroke-miterlimit:4;stroke-dasharray:none;stroke-dashoffset:0;stroke-opacity:1;paint-order:normal" />
      <path
         inkscape:connector-curvature="0"
         id="path1398"
         d="m 112.64217,143.08181 c 0.45309,-1.12384 0.9837,-2.35369 1.3092,-3.50808 0.48986,-1.76404 1.12049,-2.98186 1.12795,-2.97789 -0.3446,2.00325 -0.98213,4.07431 -1.40191,5.6796 -0.25147,0.2814 -0.6278,0.64634 -0.95295,0.8307 l -0.11853,0.0696 z"
         style="opacity:1;fill:#ec6e00;fill-opacity:1;stroke:none;stroke-width:0.00732528;stroke-linecap:round;stroke-linejoin:round;stroke-miterlimit:4;stroke-dasharray:none;stroke-dashoffset:0;stroke-opacity:1;paint-order:normal"
         sodipodi:nodetypes="ccccccc" />
    </g>
  </g>
</svg>
